<?xml version="1.0" encoding="UTF-8"?>
<svg id="Layer_1" data-name="Layer 1" xmlns="http://www.w3.org/2000/svg" viewBox="0 0 50.76 63.8">
  <path d="m17.17,48.8l-1.12.33c-.57.17-1.18-.08-1.47-.61-.78-1.43-.77-1.77-2.25-1.63l-5.24,13.81,5.21-1.28,3.06,4.39,5.04-13.28c-1.56.23-1.62-2.21-3.23-1.73Z" style="fill: #fff; stroke-width: 0px;"/>
  <path d="m36.18,48.52c-.28.52-.9.78-1.47.61l-1.12-.33c-1.71-.5-1.79,2.39-3.54,1.64l4.62,12.18,3.06-4.39,5.21,1.28-4.8-12.64c-1.2-.11-1.35.54-1.96,1.66Z" style="fill: #fff; stroke-width: 0px;"/>
  <path d="m25.38,43.48c-14.05,0-22.87-15.18-15.84-27.31,7.02-12.11,24.64-12.13,31.67,0,7.02,12.11-1.77,27.31-15.84,27.31Z" style="fill: #fff; stroke-width: 0px;"/>
  <path d="m50.48,26.06c.37-.46.37-1.12,0-1.58l-.73-.9c-.32-.39-.37-.94-.14-1.38l.54-1.02c.28-.53.15-1.18-.31-1.56l-.89-.74c-.39-.32-.54-.84-.4-1.32l.33-1.12c.17-.57-.08-1.18-.61-1.46l-1.02-.55c-.44-.24-.7-.72-.65-1.22l.11-1.15c.05-.59-.32-1.14-.89-1.32l-1.12-.34c-.48-.15-.83-.57-.89-1.07l-.12-1.15c-.06-.59-.53-1.06-1.12-1.12l-1.16-.12c-.5-.06-.93-.4-1.07-.88l-.35-1.11c-.18-.57-.73-.94-1.32-.88l-1.16.11c-.5.05-.99-.21-1.23-.66l-.55-1.02c-.29-.52-.9-.78-1.47-.61l-1.12.33c-.48.14-1.01-.01-1.33-.4l-.75-.89c-.38-.45-1.03-.58-1.56-.31l-1.03.54c-.45.23-.99.18-1.38-.13l-.91-.73c-.47-.37-1.13-.37-1.59,0l-.91.73c-.39.32-.94.37-1.38.14l-1.03-.54c-.53-.28-1.18-.15-1.56.31l-.75.89c-.32.39-.84.55-1.33.4l-1.12-.33c-.57-.17-1.18.08-1.47.61l-.55,1.02c-.24.45-.72.7-1.23.66l-1.16-.11c-.59-.06-1.14.31-1.32.88l-.35,1.11c-.15.48-.57.83-1.07.88l-1.16.12c-.59.06-1.07.53-1.12,1.12l-.12,1.16c-.05.5-.4.92-.88,1.07l-1.12.34c-.57.17-.94.73-.88,1.31l.1,1.16c.05.5-.21.98-.65,1.22l-1.02.55c-.53.28-.78.9-.61,1.46l.33,1.12c.14.48-.01,1-.4,1.32l-.9.74c-.46.38-.59,1.03-.3,1.56l.54,1.02c.24.45.18.99-.13,1.38l-.73.9c-.37.46-.37,1.12,0,1.58l.73.9c.32.39.37.93.13,1.38l-.54,1.03c-.28.52-.15,1.18.3,1.55l.9.75c.39.32.54.84.4,1.32l-.33,1.11c-.17.57.08,1.18.61,1.46l1.02.56c.44.24.7.72.65,1.22l-.11,1.16c-.05.59.32,1.14.89,1.32l1.12.34c.48.15.83.57.88,1.07l.12,1.15c.06.59.53,1.06,1.12,1.12l1.16.12c.5.05.93.4,1.07.88l.35,1.11c.18.57.73.94,1.32.88.83-.07.58-.05,1.16-.11.5-.05.99.21,1.23.65l.55,1.02c.29.52.9.77,1.47.61l1.12-.33c.48-.14,1.01.01,1.33.4l.75.89c.38.46,1.04.58,1.56.31l1.03-.54c.45-.23.99-.18,1.38.13l.91.73c.46.38,1.12.38,1.59,0l.91-.73c.89-.72,1.72.11,2.51.45.51.22,1.11.08,1.47-.35l.75-.89c.32-.39.84-.55,1.33-.4l1.12.33c.57.17,1.18-.09,1.47-.61l.55-1.02c.24-.44.72-.7,1.23-.65.29.03.88.08,1.16.11.59.06,1.14-.31,1.32-.88l.34-1.11c.15-.48.58-.83,1.08-.88l1.16-.12c.59-.06,1.06-.53,1.12-1.12l.12-1.15c.06-.5.4-.92.89-1.07l1.11-.34c.57-.17.94-.73.89-1.32l-.11-1.15c-.05-.5.21-.98.65-1.22l1.02-.56c.53-.28.78-.9.61-1.46l-.33-1.11c-.14-.48.01-1,.4-1.32l.89-.75c.46-.38.59-1.03.31-1.55l-.54-1.03c-.24-.45-.18-.99.14-1.38l.73-.9Zm-25.1,18.17c-14.66,0-23.81-15.83-16.5-28.45,7.33-12.64,25.68-12.61,32.99,0,7.33,12.64-1.87,28.45-16.5,28.45Z" style="fill: #fff; stroke-width: 0px;"/>
</svg>