<?xml version="1.0" encoding="UTF-8"?>
<svg id="Layer_1" data-name="Layer 1" xmlns="http://www.w3.org/2000/svg" viewBox="0 0 50.65 63.96">
  <path d="m22.28,0c1.25-.02,2.35.1,3.58.11,13.33.07,21.77,2.29,24.16,16.87,1.11,6.78.91,20.55-1.81,26.86-3.65,8.49-13.69,8.77-21.7,9.08-.33.16-.61,1.52-.8,1.95-1.51,3.44-4.09,7.04-7.63,8.55-1.35.58-2.24,1.09-1.93-.78s2.67-8.48,1.68-9.86c-.27-.38-2.15-.47-2.74-.58-8.93-1.77-12.74-5.08-14.4-14.21C-.68,30.52-.15,14.89,3.6,8.19,7.23,1.71,15.4.14,22.28,0Zm4.71,29.63c1.04-1.1,3.5-2.14,4.85-3.17,8.39-6.39,6.96-18.8-4.83-17.83-5.08.42-9.54,5.14-9.9,10.19-.13,1.88.81,3.51,2.93,3.07,1.9-.39,1.64-2.74,2.09-4.13,2.07-6.47,12.43-5.87,10.08.98-1.59,4.63-7.53,5.31-9.81,9.26-1.19,2.06-1.57,4.85-.77,7.11,1.05,2.99,4.79,2.04,4.72-.53-.01-.46-.35-1.01-.41-1.47-.16-1.22.2-2.58,1.05-3.48Zm-3.7,10.1c-2.39.44-1.95,4.48.67,4.3,2.94-.21,2.61-4.9-.67-4.3Z" style="fill: #fff; stroke-width: 0px;"/>
</svg>