<?xml version="1.0" encoding="UTF-8"?>
<svg id="Layer_1" data-name="Layer 1" xmlns="http://www.w3.org/2000/svg" viewBox="0 0 63.63 63.84">
  <path d="m55.57,37.24v21.49c0,2.38-2.81,5.24-5.1,5.11l-37.89-.02c-1.87-.17-4.49-2.76-4.49-4.75v-21.82H3.29c-.06,0-.92-.31-1.06-.38-2.17-1-2.95-4.15-1.46-6.15l9.17-9.65c.33-4.09-.33-8.65.02-12.68.08-.95.6-1.6,1.52-1.73,1.15-.17,4.14-.14,5.34-.02.57.06,1.8.58,1.8,1.26v4.1L29.63.72c3.2-2.32,5.95,1.57,8.09,3.75,8.55,8.68,16.81,17.69,25.3,26.43,1.08,1.88.69,4.32-1.02,5.58-.26.19-1.39.76-1.64.76h-4.8Z" style="fill: #fff; stroke-width: 0px;"/>
</svg>