<?xml version="1.0" encoding="UTF-8"?>
<svg id="Layer_2" data-name="Layer 2" xmlns="http://www.w3.org/2000/svg" viewBox="0 0 349.29 215.74">
  <g id="Layer_1-2" data-name="Layer 1">
    <path d="m155.04,215.5c-31.74-56.49-47.13-71.74-47.42-46.99.29-24.75-15.45-9.86-48.5,45.87,33.05-55.74,38.56-76.69,16.99-64.56,21.58-12.12.82-18.31-63.98-19.07,64.8.76,85.7-4.95,64.41-17.57,21.29,12.62,16.27-8.45-15.48-64.94,31.74,56.49,47.13,71.74,47.42,46.99-.29,24.75,15.45,9.86,48.5-45.87-33.05,55.74-38.56,76.69-16.99,64.56-21.58,12.12-.82,18.31,63.98,19.07-64.8-.76-85.7,4.95-64.41,17.57-21.29-12.62-16.27,8.45,15.48,64.94Z" style="fill: none; stroke: #29253f; stroke-miterlimit: 10;"/>
    <path d="m257.4,181.18c-.67-32.52-3.87-42.91-9.86-32.03,5.99-10.89-4.5-8.02-32.33,8.82,27.83-16.84,35.23-24.81,22.8-24.55,12.42-.26,4.7-7.91-23.8-23.59,28.5,15.68,39.1,18.1,32.67,7.47,6.43,10.63,9.2.11,8.53-32.41.67,32.52,3.87,42.91,9.86,32.03-5.99,10.89,4.5,8.02,32.33-8.82-27.83,16.84-35.23,24.81-22.8,24.55-12.42.26-4.7,7.91,23.8,23.59-28.5-15.68-39.1-18.1-32.67-7.47-6.43-10.63-9.2-.11-8.53,32.41Z" style="fill: none; stroke: #29253f; stroke-miterlimit: 10;"/>
    <path d="m155.8,215.5c-31.74-56.49-47.13-71.74-47.42-46.99.29-24.75-15.45-9.86-48.5,45.87,33.05-55.74,38.56-76.69,16.99-64.56,21.58-12.12.82-18.31-63.98-19.07,64.8.76,85.7-4.95,64.41-17.57,21.29,12.62,16.27-8.45-15.48-64.94,31.74,56.49,47.13,71.74,47.42,46.99-.29,24.75,15.45,9.86,48.5-45.87-33.05,55.74-38.56,76.69-16.99,64.56-21.58,12.12-.82,18.31,63.98,19.07-64.8-.76-85.7,4.95-64.41,17.57-21.29-12.62-16.27,8.45,15.48,64.94Z" style="fill: none; stroke: #e1e1e1; stroke-miterlimit: 10;"/>
    <path d="m257.4,180.09c-.67-32.52-3.87-42.91-9.86-32.03,5.99-10.89-4.5-8.02-32.33,8.82,27.83-16.84,35.23-24.81,22.8-24.55,12.42-.26,4.7-7.91-23.8-23.59,28.5,15.68,39.1,18.1,32.67,7.47,6.43,10.63,9.2.11,8.53-32.41.67,32.52,3.87,42.91,9.86,32.03-5.99,10.89,4.5,8.02,32.33-8.82-27.83,16.84-35.23,24.81-22.8,24.55-12.42.26-4.7,7.91,23.8,23.59-28.5-15.68-39.1-18.1-32.67-7.47-6.43-10.63-9.2-.11-8.53,32.41Z" style="fill: none; stroke: #e1e1e1; stroke-miterlimit: 10;"/>
    <path d="m41.54,93.88c-1.17.61-3.33.79-6.5.56l-4.85-.3c-1.1.57-1.54,2.01-1.34,4.3.38,2.31,1.3,4.87,2.76,7.66,2.06,3.95,4.12,6.95,6.18,9.02,2.06,2.06,3.84,2.71,5.33,1.93.45-.24.86-1.44,1.21-3.61.44-2.32,1.98-4.17,4.64-5.55,2.33-1.21,4.53-1.26,6.59-.14,2.06,1.12,3.66,2.28,4.77,3.47,1.12,1.2,1.98,2.37,2.58,3.52.64,1.23,1.08,2.52,1.33,3.85.24,1.34.4,2.3.46,2.9-.04.23-.04.6.01,1.09.05.5.07,1.12.04,1.86.12,2.13-.67,4.45-2.36,6.96-1.7,2.51-3.91,4.47-6.62,5.88-.71.37-1.53.74-2.44,1.11-.92.37-1.92.69-3.02.95-1.1.26-2.17.45-3.22.58-1.04.13-2.89.25-5.54.38-4.07.24-8.56-1.66-13.46-5.69-5.01-4.08-9.16-9.29-12.46-15.62-1.16-2.22-2.15-4.37-2.99-6.44s-1.59-4.4-2.27-6.97c-1.43-4.8-2.19-9.26-2.29-13.39-.31-4.23.57-8.11,2.63-11.64,2.07-3.53,5.04-6.31,8.92-8.34,1.03-.54,1.9-.96,2.6-1.28.7-.31,1.3-.54,1.79-.7.93-.27,2.38-.56,4.36-.86,3.34-.69,6.56-.04,9.66,1.95,3.09,2,5.54,4.72,7.34,8.17,1.12,2.14,1.45,4.37,1.02,6.69-.33,1.74-1.26,3.74-2.8,6l-2.07,1.71Z" style="fill: #29253f; stroke: #29253f; stroke-miterlimit: 10;"/>
    <path d="m67.44,112.88c-2.94-4.26-5.31-9.16-7.14-14.71-2.14-6.52-3.41-13.18-3.8-19.98-.31-7.02.15-12.05,1.38-15.09,1.24-3.24,2.98-5.96,5.21-8.15,2.23-2.2,4.81-3.77,7.72-4.73,2.98-.98,6.66-1.11,11.04-.41,4.56.55,8.92,3.32,13.09,8.29,4.21,4.87,7.47,10.82,9.79,17.87.81,2.47,1.5,5.02,2.06,7.67.56,2.65.97,5.24,1.24,7.79.26,2.55.41,4.99.45,7.32.04,2.33-.07,4.41-.31,6.25-.58,3.61-2.28,7.19-5.11,10.76-2.89,3.59-6.32,6.03-10.27,7.33-2.36.77-4.74,1.12-7.15,1.03s-4.94-.77-7.58-2.05c-4.14-1.86-7.68-4.92-10.62-9.18Zm8.06-38.23c-.68,1.44-.63,3.35.16,5.73l4.77,15.56c.69,2.11,1.67,3.8,2.92,5.04,1.27,1.05,2.53,1.51,3.8,1.39,1.47-.19,2.3-1.53,2.48-4.03.18-2.5-.08-4.8-.78-6.92l-4.49-13.31c-.61-1.85-1.46-3.35-2.57-4.5-1.11-1.15-2.29-1.66-3.56-1.54-1.14.28-2.05,1.14-2.72,2.58Z" style="fill: #29253f; stroke: #29253f; stroke-miterlimit: 10;"/>
    <path d="m166.08,86.69c1.17,2.46,1.85,4.37,2.05,5.75.12.83.17,1.71.16,2.65-.01.94-.14,1.94-.39,3.01-.25,1.07-.72,2.19-1.39,3.36-.68,1.18-1.65,2.47-2.92,3.87-1.57,1.35-3.44,2.18-5.61,2.5-3.67.62-6.78-.22-9.32-2.52-2.54-2.3-4.45-5.56-5.73-9.78-.8-2.51-1.39-5-1.74-7.48-.23-1.56-.41-2.84-.56-3.85-.16-1.1-.24-1.93-.25-2.49-.07-2.52-.13-4.48-.19-5.88l-.85-11.26c-.13-.92-.29-1.64-.48-2.18s-.6-1.46-1.23-2.77c-.63-1.31-1.44-1.8-2.42-1.48-2.23.89-3.64,2.63-4.22,5.25-.51,2.6-.46,5.97.13,10.1.17,1.19.34,2.34.5,3.44.15,1.01.37,2.05.67,3.13l1.84,6.62,2.1,6.86,1.17,5.03c.16,1.1.14,2.65-.05,4.65-.19,2-1.25,3.98-3.18,5.94-1.87,1.86-4.18,2.99-6.92,3.39-1.16.17-2.37.18-3.64.04-1.28-.14-2.51-.43-3.72-.87-1.21-.43-2.34-1-3.4-1.69-1.06-.69-1.91-1.5-2.57-2.44-1.32-1.96-2.16-4.23-2.53-6.8-.28-1.93-.35-3.98-.23-6.15l.91-7.44c.5-3.16.55-6.17.13-9.01-.57-3.94-1.71-7.72-3.41-11.31l-3.8-8.73-1.48-4.14c-.2-1.38-.14-2.72.19-4.03.33-1.31.85-2.56,1.56-3.74.71-1.18,1.59-2.22,2.64-3.12,1.05-.9,2.2-1.63,3.44-2.18,1.32-.56,2.36-1,3.13-1.3.77-.3,1.59-.51,2.45-.64,2.38-.34,4.54.28,6.46,1.88l3.86,4.5c.88,1,1.68,1.44,2.41,1.34.13-.11.28-.23.45-.35.17-.12.36-.43.58-.93l1.62-3.33c.69-1.32,2.1-2.78,4.23-4.41,2.27-1.64,4.45-2.61,6.54-2.91,5.05-.73,8.86.88,11.42,4.81,1.33,2.06,2.2,3.71,2.6,4.97l.84,3.53.75,4.39.7,4.82c-.01.94,0,1.73.07,2.38.06.65.08,1.21.08,1.67l.78,8.46c.17,1.19.33,2.2.49,3.02.16.82.32,1.59.5,2.32.18.73.41,1.46.71,2.22.29.76.63,1.67,1,2.74l3.05,6.59Z" style="fill: #29253f; stroke: #29253f; stroke-miterlimit: 10;"/>
    <path d="m195.39,52.92l-.12,2.64-.47,6.67-.38,9.6-.02,3.48c0,.83.21,2.09.63,3.76l1.93,6.41c1.01,2.79,1.5,4.97,1.5,6.55,0,.83-.05,1.79-.12,2.85-.08,1.07-.27,2.2-.57,3.4-.3,1.2-.78,2.41-1.44,3.61-.66,1.2-1.55,2.31-2.65,3.32-2.35,1.93-4.91,2.89-7.68,2.88-1.02,0-2.13-.17-3.34-.51-1.2-.33-2.38-.92-3.55-1.76-2.33-1.68-4.06-4.1-5.21-7.26-1.15-3.16-1.71-6.83-1.69-11,0-1.39.13-3.31.36-5.77.23-2.45.62-5.77,1.15-9.94.15-1.02.5-4.12,1.04-9.31.15-1.39.27-2.52.35-3.41.08-.88.12-1.55.12-2.02.01-2.13-.09-3.71-.3-4.73-.21-1.02-.79-1.67-1.74-1.96l-3.17-.85c-.95.27-1.84-.13-2.68-1.2-.83-1.07-1.24-2.81-1.23-5.22l.13-2.92c.15-1.02.88-1.53,2.2-1.52l2.19.15,2.63-.12,2.19-.4c.44,0,.69-.32.77-.97,0-.46-.39-2.09-1.18-4.87l-2.15-7.8c-.71-2.69-1.07-4.92-1.06-6.68-.14-1.39.09-2.94.68-4.66.59-1.71,1.44-3.33,2.54-4.85,1.1-1.52,2.42-2.79,3.96-3.8,1.54-1.01,3.22-1.46,5.04-1.36,1.82,0,3.46.53,4.92,1.56,2.55,1.41,4.36,3.6,5.44,6.57,1.08,2.98,1.61,6.32,1.59,10.02l-.48,7.65-.47,5.28c-.02,3.25,1.36,4.88,4.13,4.89l2.52-.4c1.24-.27,2.08.08,2.51,1.06.43.98.68,1.84.75,2.58.14.93.21,1.76.21,2.51l-.12,2.78c0,1.3-1.51,2.17-4.5,2.62-2.63-.01-4.16.25-4.6.81l-.56,1.67Z" style="fill: #29253f; stroke: #29253f; stroke-miterlimit: 10;"/>
    <path d="m238.81,75.94c-1.15-.18-2.3-.65-3.43-1.44-1.14-.78-2.17-2-3.1-3.64-.38-.43-.81-.73-1.3-.9-.72-.11-1.3.27-1.72,1.14l-.85,2.68-.57,3.01c-.45,2.94-.42,7.82.09,14.65.62,6.57.82,10.59.6,12.05l-1.21,4.32c-.56,2.26-1.98,4.06-4.26,5.4s-4.78,1.8-7.52,1.39c-2.45-.37-4.65-1.32-6.6-2.83-1.95-1.51-3.24-3.35-3.87-5.51-1.13-4.68-1.2-10.31-.19-16.91l1.46-7.38c.69-3.08,1.26-5.11,1.7-6.07l1.04-3.92c.35-2.29.2-6.16-.44-11.61-.62-5.16-.75-8.88-.4-11.18.54-3.57,1.96-6.22,4.25-7.93,2.29-1.71,5.06-2.32,8.3-1.83,1.8.27,3.32.72,4.56,1.33,1.24.61,2.58,1.68,4.05,3.22l1.73,3.92.93.42c.43.07.99-.22,1.68-.87l1.51-1.88c1.92-1.96,4.25-2.73,7-2.31,2.67.41,4.99,1.89,6.96,4.44s2.94,5.19,2.89,7.9l-.42,6.41c-.38,2.47-1.04,4.74-1.98,6.8-.94,2.06-2.29,3.76-4.04,5.08-2.33,1.71-4.61,2.39-6.85,2.05Z" style="fill: #29253f; stroke: #29253f; stroke-miterlimit: 10;"/>
    <path d="m242.35,103.01c.2-5.17,1.24-10.52,3.11-16.05,2.2-6.5,5.18-12.59,8.94-18.27,3.96-5.81,7.35-9.56,10.15-11.25,2.94-1.85,5.96-2.98,9.06-3.4,3.11-.42,6.11-.14,9.02.84,2.97,1,6,3.1,9.08,6.3,3.32,3.18,5.15,8.01,5.5,14.49.45,6.42-.51,13.14-2.88,20.17-.83,2.46-1.82,4.92-2.95,7.37-1.14,2.46-2.37,4.78-3.68,6.98-1.32,2.2-2.67,4.24-4.04,6.13-1.37,1.89-2.7,3.49-3.99,4.82-2.63,2.54-6.14,4.39-10.54,5.54-4.46,1.13-8.67,1.04-12.61-.3-2.35-.79-4.46-1.95-6.34-3.46s-3.49-3.58-4.84-6.19c-2.2-3.97-3.2-8.54-2.99-13.71Zm29.38-25.75c-1.41.75-2.51,2.31-3.31,4.68l-5.52,15.31c-.71,2.11-.94,4.04-.68,5.79.38,1.6,1.12,2.73,2.21,3.39,1.29.73,2.76.15,4.4-1.74,1.64-1.89,2.82-3.89,3.53-6l4.39-13.34c.62-1.85.84-3.56.64-5.14-.2-1.58-.84-2.71-1.92-3.37-1.08-.46-2.32-.32-3.73.43Z" style="fill: #29253f; stroke: #29253f; stroke-miterlimit: 10;"/>
    <path d="m315.44,121.95l-1.66,6.45c-.62,1.9-1.3,3.49-2.06,4.76-1.7,2.87-3.89,5.02-6.57,6.46-2.68,1.43-4.99,1.95-6.95,1.53l-4.21-1.69c-2.51-1.49-4.27-3.67-5.29-6.53-1.02-2.87-.95-5.9.19-9.11l5-10.78,5.87-10.75,8.52-13.71,10.47-15.94,1.35-2.27c.47-.8.83-1.55,1.09-2.26.33-.56.32-1.91-.02-4.05-.29-2.22.72-5.29,3.04-9.2.99-1.67,2.17-3.16,3.53-4.45,1.36-1.29,2.8-2.3,4.33-3.01,1.53-.71,3.11-1.06,4.76-1.06,1.65,0,3.23.46,4.73,1.35,1.69,1.01,3,2.16,3.93,3.46l2.42,3.22c1.6,2.89,1.04,6.6-1.65,11.15l-12.21,20.58-8.78,15.01c-1.8,3.03-3.4,5.88-4.81,8.55-1.41,2.67-2.66,5.19-3.73,7.57-.33.56-.76,2.14-1.28,4.74Z" style="fill: #29253f; stroke: #29253f; stroke-miterlimit: 10;"/>
    <path d="m208.02,183.85h-65.09c-2.86,0-5.18-2.32-5.17-5.18l1.04-32.4-.93-25.1c0-1.45.62-2.83,1.69-3.81l2.24-2.05c.95-.87,2.19-1.35,3.48-1.35h60.61c1.29,0,2.53.48,3.48,1.35l2.23,2.04c1.08.98,1.69,2.37,1.69,3.83l-1.58,26.28,1.46,31.24c0,2.85-2.32,5.16-5.17,5.16Z" style="fill: #21409a; stroke-width: 0px;"/>
    <path d="m206.12,182.57h-65.09c-2.86,0-5.18-2.32-5.17-5.18l1.04-32.4-.93-25.1c0-1.45.62-2.83,1.69-3.81l2.24-2.05c.95-.87,2.19-1.35,3.48-1.35h60.61c1.29,0,2.53.48,3.48,1.35l2.23,2.04c1.08.98,1.69,2.37,1.69,3.83l-1.58,26.28,1.46,31.24c0,2.85-2.32,5.16-5.17,5.16Z" style="fill: #4552a4; stroke: #21409a; stroke-miterlimit: 10;"/>
    <path d="m201.09,176.86l-55.09-.4c-3.15,0-4.25-.41-4.25-3.56l.82-27.92-1.26-28.25c0-3.15,2.63-4.06,5.79-4.06h53.19c3.15,0,5.83.81,5.83,3.97l-1.95,29.39,1,26.87c0,3.15-.93,3.96-4.08,3.96Z" style="fill: #9c5aa1; stroke: #21409a; stroke-miterlimit: 10;"/>
    <line x1="137.51" y1="180.98" x2="143.05" y2="175.71" style="fill: none; stroke: #21409a; stroke-miterlimit: 10;"/>
    <line x1="209.69" y1="180.98" x2="204.42" y2="175.71" style="fill: none; stroke: #21409a; stroke-miterlimit: 10;"/>
    <text transform="translate(155.22 162.12) scale(.91 1)" style="fill: #e1e1e1; font-family: Mayego-Regular, Mayego; font-size: 58.29px;"><tspan x="0" y="0">z</tspan></text>
    <text transform="translate(155.02 162.12) scale(.91 1)" style="fill: none; font-family: Mayego-Regular, Mayego; font-size: 58.29px; stroke: #29253f; stroke-miterlimit: 10; stroke-width: .5px;"><tspan x="0" y="0">z</tspan></text>
    <path d="m34.03,93.32c-1.17.61-3.33.79-6.5.56l-4.85-.3c-1.1.57-1.54,2.01-1.34,4.3.38,2.31,1.3,4.87,2.76,7.66,2.06,3.95,4.12,6.95,6.18,9.02,2.06,2.06,3.84,2.71,5.33,1.93.45-.24.86-1.44,1.21-3.61.44-2.32,1.98-4.17,4.64-5.55,2.33-1.21,4.53-1.26,6.59-.14,2.06,1.12,3.66,2.28,4.77,3.47,1.12,1.2,1.98,2.37,2.58,3.52.64,1.23,1.08,2.52,1.33,3.85.24,1.34.4,2.3.46,2.9-.04.23-.04.6.01,1.09.05.5.07,1.12.04,1.86.12,2.13-.67,4.45-2.36,6.96-1.7,2.51-3.91,4.47-6.62,5.88-.71.37-1.53.74-2.44,1.11-.92.37-1.92.69-3.02.95-1.1.26-2.17.45-3.22.58-1.04.13-2.89.25-5.54.38-4.07.24-8.56-1.66-13.46-5.69-5.01-4.08-9.16-9.29-12.46-15.62-1.16-2.22-2.15-4.37-2.99-6.44s-1.59-4.4-2.27-6.97c-1.43-4.8-2.19-9.26-2.29-13.39-.31-4.23.57-8.11,2.63-11.64,2.07-3.53,5.04-6.31,8.92-8.34,1.03-.54,1.9-.96,2.6-1.28.7-.31,1.3-.54,1.79-.7.93-.27,2.38-.56,4.36-.86,3.34-.69,6.56-.04,9.66,1.95,3.09,2,5.54,4.72,7.34,8.17,1.12,2.14,1.45,4.37,1.02,6.69-.33,1.74-1.26,3.74-2.8,6l-2.07,1.71Z" style="fill: none; stroke: #29253f; stroke-miterlimit: 10;"/>
    <path d="m60.21,111.17c-2.94-4.26-5.31-9.16-7.14-14.71-2.14-6.52-3.41-13.18-3.8-19.98-.31-7.02.15-12.05,1.38-15.09,1.24-3.24,2.98-5.96,5.21-8.15,2.23-2.2,4.81-3.77,7.72-4.73,2.98-.98,6.66-1.11,11.04-.41,4.56.55,8.92,3.32,13.09,8.29,4.21,4.87,7.47,10.82,9.79,17.87.81,2.47,1.5,5.02,2.06,7.67.56,2.65.97,5.24,1.24,7.79.26,2.55.41,4.99.45,7.32.04,2.33-.07,4.41-.31,6.25-.58,3.61-2.28,7.19-5.11,10.76-2.89,3.59-6.32,6.03-10.27,7.33-2.36.77-4.74,1.12-7.15,1.03s-4.94-.77-7.58-2.05c-4.14-1.86-7.68-4.92-10.62-9.18Zm8.06-38.23c-.68,1.44-.63,3.35.16,5.73l4.77,15.56c.69,2.11,1.67,3.8,2.92,5.04,1.27,1.05,2.53,1.51,3.8,1.39,1.47-.19,2.3-1.53,2.48-4.03.18-2.5-.08-4.8-.78-6.92l-4.49-13.31c-.61-1.85-1.46-3.35-2.57-4.5-1.11-1.15-2.29-1.66-3.56-1.54-1.14.28-2.05,1.14-2.72,2.58Z" style="fill: none; stroke: #29253f; stroke-miterlimit: 10;"/>
    <path d="m159.62,82.99c1.17,2.46,1.85,4.37,2.05,5.75.12.83.17,1.71.16,2.65-.01.94-.14,1.94-.39,3.01-.25,1.07-.72,2.19-1.39,3.36-.68,1.18-1.65,2.47-2.92,3.87-1.57,1.35-3.44,2.18-5.61,2.5-3.67.62-6.78-.22-9.32-2.52-2.54-2.3-4.45-5.56-5.73-9.78-.8-2.51-1.39-5-1.74-7.48-.23-1.56-.41-2.84-.56-3.85-.16-1.1-.24-1.93-.25-2.49-.07-2.52-.13-4.48-.19-5.88l-.85-11.26c-.13-.92-.29-1.64-.48-2.18s-.6-1.46-1.23-2.77c-.63-1.31-1.44-1.8-2.42-1.48-2.23.89-3.64,2.63-4.22,5.25-.51,2.6-.46,5.97.13,10.1.17,1.19.34,2.34.5,3.44.15,1.01.37,2.05.67,3.13l1.84,6.62,2.1,6.86,1.17,5.03c.16,1.1.14,2.65-.05,4.65-.19,2-1.25,3.98-3.18,5.94-1.87,1.86-4.18,2.99-6.92,3.39-1.16.17-2.37.18-3.64.04-1.28-.14-2.51-.43-3.72-.87-1.21-.43-2.34-1-3.4-1.69-1.06-.69-1.91-1.5-2.57-2.44-1.32-1.96-2.16-4.23-2.53-6.8-.28-1.93-.35-3.98-.23-6.15l.91-7.44c.5-3.16.55-6.17.13-9.01-.57-3.94-1.71-7.72-3.41-11.31l-3.8-8.73-1.48-4.14c-.2-1.38-.14-2.72.19-4.03.33-1.31.85-2.56,1.56-3.74.71-1.18,1.59-2.22,2.64-3.12,1.05-.9,2.2-1.63,3.44-2.18,1.32-.56,2.36-1,3.13-1.3.77-.3,1.59-.51,2.45-.64,2.38-.34,4.54.28,6.46,1.88l3.86,4.5c.88,1,1.68,1.44,2.41,1.34.13-.11.28-.23.45-.35.17-.12.36-.43.58-.93l1.62-3.33c.69-1.32,2.1-2.78,4.23-4.41,2.27-1.64,4.45-2.61,6.54-2.91,5.05-.73,8.86.88,11.42,4.81,1.33,2.06,2.2,3.71,2.6,4.97l.84,3.53.75,4.39.7,4.82c-.01.94,0,1.73.07,2.38.06.65.08,1.21.08,1.67l.78,8.46c.17,1.19.33,2.2.49,3.02.16.82.32,1.59.5,2.32.18.73.41,1.46.71,2.22.29.76.63,1.67,1,2.74l3.05,6.59Z" style="fill: none; stroke: #29253f; stroke-miterlimit: 10;"/>
    <path d="m189.14,50.1l-.12,2.64-.47,6.67-.38,9.6-.02,3.48c0,.83.21,2.09.63,3.76l1.93,6.41c1.01,2.79,1.5,4.97,1.5,6.55,0,.83-.05,1.79-.12,2.85-.08,1.07-.27,2.2-.57,3.4-.3,1.2-.78,2.41-1.44,3.61-.66,1.2-1.55,2.31-2.65,3.32-2.35,1.93-4.91,2.89-7.68,2.88-1.02,0-2.13-.17-3.34-.51-1.2-.33-2.39-.92-3.55-1.76-2.33-1.68-4.06-4.1-5.21-7.26-1.15-3.16-1.71-6.83-1.69-11,0-1.39.13-3.31.36-5.77.23-2.45.62-5.77,1.15-9.94.15-1.02.5-4.12,1.04-9.31.15-1.39.27-2.52.35-3.41.08-.88.12-1.55.12-2.02.01-2.13-.09-3.71-.3-4.73-.21-1.02-.79-1.67-1.74-1.96l-3.17-.85c-.95.27-1.84-.13-2.68-1.2-.83-1.07-1.24-2.81-1.23-5.22l.13-2.92c.15-1.02.88-1.53,2.2-1.52l2.19.15,2.63-.12,2.19-.4c.44,0,.69-.32.77-.97,0-.46-.39-2.09-1.18-4.87l-2.15-7.8c-.71-2.69-1.07-4.92-1.06-6.68-.14-1.39.09-2.94.68-4.66.59-1.71,1.44-3.33,2.54-4.85,1.1-1.52,2.42-2.79,3.96-3.8,1.54-1.01,3.22-1.46,5.04-1.36,1.82,0,3.46.53,4.92,1.56,2.55,1.41,4.36,3.6,5.43,6.57,1.08,2.98,1.61,6.32,1.59,10.02l-.48,7.65-.47,5.28c-.02,3.25,1.36,4.88,4.13,4.89l2.52-.4c1.24-.27,2.08.08,2.51,1.06.43.98.68,1.84.75,2.58.14.93.21,1.76.2,2.51l-.12,2.78c0,1.3-1.51,2.17-4.5,2.62-2.63-.01-4.16.25-4.6.81l-.56,1.67Z" style="fill: none; stroke: #29253f; stroke-miterlimit: 10;"/>
    <path d="m233.56,70.5c-1.16-.18-2.3-.65-3.43-1.44-1.14-.78-2.17-2-3.1-3.64-.38-.43-.81-.73-1.3-.9-.72-.11-1.3.27-1.72,1.14l-.85,2.68-.57,3.01c-.45,2.94-.42,7.82.09,14.65.62,6.57.82,10.59.6,12.05l-1.21,4.32c-.57,2.26-1.99,4.06-4.26,5.4-2.27,1.34-4.78,1.8-7.52,1.39-2.45-.37-4.65-1.32-6.6-2.83-1.95-1.51-3.24-3.35-3.87-5.51-1.13-4.68-1.19-10.31-.19-16.91l1.46-7.38c.69-3.08,1.26-5.11,1.7-6.07l1.04-3.92c.35-2.29.2-6.16-.44-11.61-.62-5.16-.75-8.88-.4-11.18.54-3.57,1.96-6.22,4.25-7.93,2.29-1.71,5.06-2.32,8.3-1.83,1.8.27,3.32.72,4.56,1.33,1.24.61,2.58,1.68,4.05,3.22l1.73,3.92.93.42c.43.07.99-.22,1.68-.87l1.51-1.88c1.92-1.96,4.25-2.73,7-2.31,2.67.41,4.99,1.89,6.96,4.44,1.97,2.55,2.94,5.19,2.89,7.9l-.42,6.41c-.38,2.47-1.04,4.74-1.98,6.8-.94,2.06-2.29,3.76-4.04,5.08-2.33,1.71-4.61,2.39-6.84,2.05Z" style="fill: none; stroke: #29253f; stroke-miterlimit: 10;"/>
    <path d="m237.63,96.39c.2-5.17,1.24-10.52,3.11-16.05,2.2-6.5,5.18-12.59,8.94-18.27,3.96-5.81,7.35-9.56,10.16-11.25,2.93-1.85,5.95-2.98,9.06-3.4,3.11-.42,6.11-.14,9.01.84,2.97,1,6,3.1,9.08,6.3,3.32,3.18,5.15,8.01,5.5,14.49.45,6.42-.51,13.14-2.88,20.17-.83,2.46-1.82,4.92-2.95,7.37-1.14,2.46-2.37,4.78-3.68,6.98-1.32,2.2-2.67,4.24-4.03,6.13-1.37,1.89-2.7,3.49-3.99,4.82-2.63,2.54-6.14,4.39-10.54,5.54-4.47,1.13-8.67,1.04-12.61-.3-2.35-.79-4.46-1.95-6.34-3.46-1.88-1.51-3.49-3.58-4.84-6.19-2.2-3.97-3.2-8.54-2.99-13.71Zm29.38-25.75c-1.41.75-2.51,2.31-3.31,4.68l-5.52,15.31c-.71,2.11-.94,4.04-.68,5.79.38,1.6,1.12,2.73,2.21,3.39,1.29.73,2.76.15,4.4-1.74,1.64-1.89,2.82-3.89,3.53-6l4.39-13.34c.62-1.85.84-3.56.64-5.14-.2-1.58-.84-2.71-1.92-3.37-1.08-.46-2.32-.32-3.73.43Z" style="fill: none; stroke: #29253f; stroke-miterlimit: 10;"/>
    <path d="m311.41,114.88l-1.66,6.45c-.62,1.9-1.31,3.49-2.06,4.76-1.7,2.87-3.89,5.02-6.57,6.46-2.68,1.43-4.99,1.95-6.95,1.53l-4.21-1.69c-2.51-1.49-4.27-3.67-5.29-6.53-1.02-2.87-.95-5.9.19-9.11l5-10.78,5.87-10.75,8.51-13.71,10.47-15.94,1.35-2.27c.47-.8.83-1.55,1.09-2.26.33-.56.32-1.91-.02-4.05-.29-2.22.72-5.29,3.04-9.2.99-1.67,2.17-3.16,3.53-4.45,1.36-1.29,2.8-2.3,4.33-3.01,1.53-.71,3.11-1.06,4.76-1.06,1.65,0,3.23.46,4.73,1.35,1.69,1.01,3,2.16,3.93,3.46l2.42,3.22c1.59,2.89,1.04,6.6-1.65,11.15l-12.21,20.58-8.78,15.01c-1.8,3.03-3.4,5.88-4.81,8.55-1.41,2.67-2.66,5.19-3.73,7.57-.33.56-.76,2.14-1.28,4.74Z" style="fill: none; stroke: #29253f; stroke-miterlimit: 10;"/>
    <path d="m34.03,93.32c-1.17.61-3.33.79-6.5.56l-4.85-.3c-1.1.57-1.54,2.01-1.34,4.3.38,2.31,1.3,4.87,2.76,7.66,2.06,3.95,4.12,6.95,6.18,9.02,2.06,2.06,3.84,2.71,5.33,1.93.45-.24.86-1.44,1.21-3.61.44-2.32,1.98-4.17,4.64-5.55,2.33-1.21,4.53-1.26,6.59-.14,2.06,1.12,3.66,2.28,4.77,3.47,1.12,1.2,1.98,2.37,2.58,3.52.64,1.23,1.08,2.52,1.33,3.85.24,1.34.4,2.3.46,2.9-.04.23-.04.6.01,1.09.05.5.07,1.12.04,1.86.12,2.13-.67,4.45-2.36,6.96-1.7,2.51-3.91,4.47-6.62,5.88-.71.37-1.53.74-2.44,1.11-.92.37-1.92.69-3.02.95-1.1.26-2.17.45-3.22.58-1.04.13-2.89.25-5.54.38-4.07.24-8.56-1.66-13.46-5.69-5.01-4.08-9.16-9.29-12.46-15.62-1.16-2.22-2.15-4.37-2.99-6.44s-1.59-4.4-2.27-6.97c-1.43-4.8-2.19-9.26-2.29-13.39-.31-4.23.57-8.11,2.63-11.64,2.07-3.53,5.04-6.31,8.92-8.34,1.03-.54,1.9-.96,2.6-1.28.7-.31,1.3-.54,1.79-.7.93-.27,2.38-.56,4.36-.86,3.34-.69,6.56-.04,9.66,1.95,3.09,2,5.54,4.72,7.34,8.17,1.12,2.14,1.45,4.37,1.02,6.69-.33,1.74-1.26,3.74-2.8,6l-2.07,1.71Z" style="fill: #b2d453; stroke-width: 0px;"/>
    <path d="m60.21,111.17c-2.94-4.26-5.31-9.16-7.14-14.71-2.14-6.52-3.41-13.18-3.8-19.98-.31-7.02.15-12.05,1.38-15.09,1.24-3.24,2.98-5.96,5.21-8.15,2.23-2.2,4.81-3.77,7.72-4.73,2.98-.98,6.66-1.11,11.04-.41,4.56.55,8.92,3.32,13.09,8.29,4.21,4.87,7.47,10.82,9.79,17.87.81,2.47,1.5,5.02,2.06,7.67.56,2.65.97,5.24,1.24,7.79.26,2.55.41,4.99.45,7.32.04,2.33-.07,4.41-.31,6.25-.58,3.61-2.28,7.19-5.11,10.76-2.89,3.59-6.32,6.03-10.27,7.33-2.36.77-4.74,1.12-7.15,1.03s-4.94-.77-7.58-2.05c-4.14-1.86-7.68-4.92-10.62-9.18Zm8.06-38.23c-.68,1.44-.63,3.35.16,5.73l4.77,15.56c.69,2.11,1.67,3.8,2.92,5.04,1.27,1.05,2.53,1.51,3.8,1.39,1.47-.19,2.3-1.53,2.48-4.03.18-2.5-.08-4.8-.78-6.92l-4.49-13.31c-.61-1.85-1.46-3.35-2.57-4.5-1.11-1.15-2.29-1.66-3.56-1.54-1.14.28-2.05,1.14-2.72,2.58Z" style="fill: #b2d453; stroke-width: 0px;"/>
    <path d="m159.62,82.99c1.17,2.46,1.85,4.37,2.05,5.75.12.83.17,1.71.16,2.65-.01.94-.14,1.94-.39,3.01-.25,1.07-.72,2.19-1.39,3.36-.68,1.18-1.65,2.47-2.92,3.87-1.57,1.35-3.44,2.18-5.61,2.5-3.67.62-6.78-.22-9.32-2.52-2.54-2.3-4.45-5.56-5.73-9.78-.8-2.51-1.39-5-1.74-7.48-.23-1.56-.41-2.84-.56-3.85-.16-1.1-.24-1.93-.25-2.49-.07-2.52-.13-4.48-.19-5.88l-.85-11.26c-.13-.92-.29-1.64-.48-2.18s-.6-1.46-1.23-2.77c-.63-1.31-1.44-1.8-2.42-1.48-2.23.89-3.64,2.63-4.22,5.25-.51,2.6-.46,5.97.13,10.1.17,1.19.34,2.34.5,3.44.15,1.01.37,2.05.67,3.13l1.84,6.62,2.1,6.86,1.17,5.03c.16,1.1.14,2.65-.05,4.65-.19,2-1.25,3.98-3.18,5.94-1.87,1.86-4.18,2.99-6.92,3.39-1.16.17-2.37.18-3.64.04-1.28-.14-2.51-.43-3.72-.87-1.21-.43-2.34-1-3.4-1.69-1.06-.69-1.91-1.5-2.57-2.44-1.32-1.96-2.16-4.23-2.53-6.8-.28-1.93-.35-3.98-.23-6.15l.91-7.44c.5-3.16.55-6.17.13-9.01-.57-3.94-1.71-7.72-3.41-11.31l-3.8-8.73-1.48-4.14c-.2-1.38-.14-2.72.19-4.03.33-1.31.85-2.56,1.56-3.74.71-1.18,1.59-2.22,2.64-3.12,1.05-.9,2.2-1.63,3.44-2.18,1.32-.56,2.36-1,3.13-1.3.77-.3,1.59-.51,2.45-.64,2.38-.34,4.54.28,6.46,1.88l3.86,4.5c.88,1,1.68,1.44,2.41,1.34.13-.11.28-.23.45-.35.17-.12.36-.43.58-.93l1.62-3.33c.69-1.32,2.1-2.78,4.23-4.41,2.27-1.64,4.45-2.61,6.54-2.91,5.05-.73,8.86.88,11.42,4.81,1.33,2.06,2.2,3.71,2.6,4.97l.84,3.53.75,4.39.7,4.82c-.01.94,0,1.73.07,2.38.06.65.08,1.21.08,1.67l.78,8.46c.17,1.19.33,2.2.49,3.02.16.82.32,1.59.5,2.32.18.73.41,1.46.71,2.22.29.76.63,1.67,1,2.74l3.05,6.59Z" style="fill: #b2d453; stroke-width: 0px;"/>
    <path d="m189.14,50.1l-.12,2.64-.47,6.67-.38,9.6-.02,3.48c0,.83.21,2.09.63,3.76l1.93,6.41c1.01,2.79,1.5,4.97,1.5,6.55,0,.83-.05,1.79-.12,2.85-.08,1.07-.27,2.2-.57,3.4-.3,1.2-.78,2.41-1.44,3.61-.66,1.2-1.55,2.31-2.65,3.32-2.35,1.93-4.91,2.89-7.68,2.88-1.02,0-2.13-.17-3.34-.51-1.2-.33-2.39-.92-3.55-1.76-2.33-1.68-4.06-4.1-5.21-7.26-1.15-3.16-1.71-6.83-1.69-11,0-1.39.13-3.31.36-5.77.23-2.45.62-5.77,1.15-9.94.15-1.02.5-4.12,1.04-9.31.15-1.39.27-2.52.35-3.41.08-.88.12-1.55.12-2.02.01-2.13-.09-3.71-.3-4.73-.21-1.02-.79-1.67-1.74-1.96l-3.17-.85c-.95.27-1.84-.13-2.68-1.2-.83-1.07-1.24-2.81-1.23-5.22l.13-2.92c.15-1.02.88-1.53,2.2-1.52l2.19.15,2.63-.12,2.19-.4c.44,0,.69-.32.77-.97,0-.46-.39-2.09-1.18-4.87l-2.15-7.8c-.71-2.69-1.07-4.92-1.06-6.68-.14-1.39.09-2.94.68-4.66.59-1.71,1.44-3.33,2.54-4.85,1.1-1.52,2.42-2.79,3.96-3.8,1.54-1.01,3.22-1.46,5.04-1.36,1.82,0,3.46.53,4.92,1.56,2.55,1.41,4.36,3.6,5.43,6.57,1.08,2.98,1.61,6.32,1.59,10.02l-.48,7.65-.47,5.28c-.02,3.25,1.36,4.88,4.13,4.89l2.52-.4c1.24-.27,2.08.08,2.51,1.06.43.98.68,1.84.75,2.58.14.93.21,1.76.2,2.51l-.12,2.78c0,1.3-1.51,2.17-4.5,2.62-2.63-.01-4.16.25-4.6.81l-.56,1.67Z" style="fill: #b2d453; stroke-width: 0px;"/>
    <path d="m233.56,70.5c-1.16-.18-2.3-.65-3.43-1.44-1.14-.78-2.17-2-3.1-3.64-.38-.43-.81-.73-1.3-.9-.72-.11-1.3.27-1.72,1.14l-.85,2.68-.57,3.01c-.45,2.94-.42,7.82.09,14.65.62,6.57.82,10.59.6,12.05l-1.21,4.32c-.57,2.26-1.99,4.06-4.26,5.4-2.27,1.34-4.78,1.8-7.52,1.39-2.45-.37-4.65-1.32-6.6-2.83-1.95-1.51-3.24-3.35-3.87-5.51-1.13-4.68-1.19-10.31-.19-16.91l1.46-7.38c.69-3.08,1.26-5.11,1.7-6.07l1.04-3.92c.35-2.29.2-6.16-.44-11.61-.62-5.16-.75-8.88-.4-11.18.54-3.57,1.96-6.22,4.25-7.93,2.29-1.71,5.06-2.32,8.3-1.83,1.8.27,3.32.72,4.56,1.33,1.24.61,2.58,1.68,4.05,3.22l1.73,3.92.93.42c.43.07.99-.22,1.68-.87l1.51-1.88c1.92-1.96,4.25-2.73,7-2.31,2.67.41,4.99,1.89,6.96,4.44,1.97,2.55,2.94,5.19,2.89,7.9l-.42,6.41c-.38,2.47-1.04,4.74-1.98,6.8-.94,2.06-2.29,3.76-4.04,5.08-2.33,1.71-4.61,2.39-6.84,2.05Z" style="fill: #b2d453; stroke-width: 0px;"/>
    <path d="m237.63,96.39c.2-5.17,1.24-10.52,3.11-16.05,2.2-6.5,5.18-12.59,8.94-18.27,3.96-5.81,7.35-9.56,10.16-11.25,2.93-1.85,5.95-2.98,9.06-3.4,3.11-.42,6.11-.14,9.01.84,2.97,1,6,3.1,9.08,6.3,3.32,3.18,5.15,8.01,5.5,14.49.45,6.42-.51,13.14-2.88,20.17-.83,2.46-1.82,4.92-2.95,7.37-1.14,2.46-2.37,4.78-3.68,6.98-1.32,2.2-2.67,4.24-4.03,6.13-1.37,1.89-2.7,3.49-3.99,4.82-2.63,2.54-6.14,4.39-10.54,5.54-4.47,1.13-8.67,1.04-12.61-.3-2.35-.79-4.46-1.95-6.34-3.46-1.88-1.51-3.49-3.58-4.84-6.19-2.2-3.97-3.2-8.54-2.99-13.71Zm29.38-25.75c-1.41.75-2.51,2.31-3.31,4.68l-5.52,15.31c-.71,2.11-.94,4.04-.68,5.79.38,1.6,1.12,2.73,2.21,3.39,1.29.73,2.76.15,4.4-1.74,1.64-1.89,2.82-3.89,3.53-6l4.39-13.34c.62-1.85.84-3.56.64-5.14-.2-1.58-.84-2.71-1.92-3.37-1.08-.46-2.32-.32-3.73.43Z" style="fill: #b2d453; stroke-width: 0px;"/>
    <path d="m311.41,114.88l-1.66,6.45c-.62,1.9-1.31,3.49-2.06,4.76-1.7,2.87-3.89,5.02-6.57,6.46-2.68,1.43-4.99,1.95-6.95,1.53l-4.21-1.69c-2.51-1.49-4.27-3.67-5.29-6.53-1.02-2.87-.95-5.9.19-9.11l5-10.78,5.87-10.75,8.51-13.71,10.47-15.94,1.35-2.27c.47-.8.83-1.55,1.09-2.26.33-.56.32-1.91-.02-4.05-.29-2.22.72-5.29,3.04-9.2.99-1.67,2.17-3.16,3.53-4.45,1.36-1.29,2.8-2.3,4.33-3.01,1.53-.71,3.11-1.06,4.76-1.06,1.65,0,3.23.46,4.73,1.35,1.69,1.01,3,2.16,3.93,3.46l2.42,3.22c1.59,2.89,1.04,6.6-1.65,11.15l-12.21,20.58-8.78,15.01c-1.8,3.03-3.4,5.88-4.81,8.55-1.41,2.67-2.66,5.19-3.73,7.57-.33.56-.76,2.14-1.28,4.74Z" style="fill: #b2d453; stroke-width: 0px;"/>
  </g>
</svg>