<?xml version="1.0" encoding="UTF-8"?>
<svg xmlns="http://www.w3.org/2000/svg" version="1.1" xmlns:xlink="http://www.w3.org/1999/xlink" viewBox="0 0 1024 1024">
  <defs>
    <style>
      .cls-1 {
        fill: #e778ad;
      }

      .cls-2 {
        fill: #a94383;
      }

      .cls-3, .cls-4, .cls-5, .cls-6 {
        fill: #fff;
      }

      .cls-7 {
        fill: #d9569a;
      }

      .cls-8 {
        fill: url(#Nepojmenovaný_přechod_161);
      }

      .cls-9 {
        fill: #8d386c;
      }

      .cls-10 {
        fill: #4f244c;
      }

      .cls-4 {
        opacity: .22;
      }

      .cls-5 {
        opacity: .13;
      }

      .cls-11 {
        fill: url(#Nepojmenovaný_přechod_21);
      }

      .cls-6 {
        opacity: .24;
      }

      .cls-12 {
        fill: url(#Nepojmenovaný_přechod_16);
      }

      .cls-13 {
        fill: url(#Nepojmenovaný_přechod_24);
      }
    </style>
    <linearGradient id="Nepojmenovaný_přechod_21" data-name="Nepojmenovaný přechod 21" x1="532.89" y1="911.95" x2="532.89" y2="593.77" gradientUnits="userSpaceOnUse">
      <stop offset="0" stop-color="#d9569a"/>
      <stop offset="0" stop-color="#d85599"/>
      <stop offset=".28" stop-color="#b74885"/>
      <stop offset=".54" stop-color="#a03f77"/>
      <stop offset=".79" stop-color="#91396e"/>
      <stop offset="1" stop-color="#8d386c"/>
    </linearGradient>
    <linearGradient id="Nepojmenovaný_přechod_24" data-name="Nepojmenovaný přechod 24" x1="514.6" y1="764.86" x2="687.54" y2="764.86" gradientUnits="userSpaceOnUse">
      <stop offset="0" stop-color="#a9417d"/>
      <stop offset=".02" stop-color="#b86394"/>
      <stop offset=".03" stop-color="#c987ad"/>
      <stop offset=".06" stop-color="#d7a8c3"/>
      <stop offset=".08" stop-color="#e4c3d6"/>
      <stop offset=".11" stop-color="#eed9e5"/>
      <stop offset=".14" stop-color="#f5eaf0"/>
      <stop offset=".18" stop-color="#fbf6f9"/>
      <stop offset=".23" stop-color="#fefdfd"/>
      <stop offset=".38" stop-color="#fff"/>
    </linearGradient>
    <radialGradient id="Nepojmenovaný_přechod_161" data-name="Nepojmenovaný přechod 161" cx="508.01" cy="489.95" fx="508.01" fy="489.95" r="203.39" gradientUnits="userSpaceOnUse">
      <stop offset="0" stop-color="#a3549b"/>
      <stop offset=".17" stop-color="#b77ab1"/>
      <stop offset=".45" stop-color="#d6b3d2"/>
      <stop offset=".7" stop-color="#ecdcea"/>
      <stop offset=".89" stop-color="#f9f5f9"/>
      <stop offset="1" stop-color="#fff"/>
    </radialGradient>
    <linearGradient id="Nepojmenovaný_přechod_16" data-name="Nepojmenovaný přechod 16" x1="504.15" y1="603.04" x2="504.15" y2="364.98" gradientUnits="userSpaceOnUse">
      <stop offset="0" stop-color="#d9569a"/>
      <stop offset="1" stop-color="#8d386c"/>
    </linearGradient>
  </defs>
  <!-- Generator: Adobe Illustrator 28.7.4, SVG Export Plug-In . SVG Version: 1.2.0 Build 166)  -->
  <g>
    <g id="Vrstva_1">
      <path class="cls-9" d="M464.37,638.83l-103.61,292.28,200.56-11.36,219.32,14.45-160.87-318.09s-37.27,8.93-44.66,9.95c-7.39,1.03-31.83,3.71-43.37,3.89-11.54.18-9.94-5.06-23.28-6.71-13.34-1.65-38.4-5.37-45.51-7.13-7.12-1.76,1.42,22.72,1.42,22.72Z"/>
      <circle class="cls-9" cx="529.21" cy="510.67" r="409.94"/>
      <circle class="cls-1" cx="504.15" cy="489.02" r="409.94"/>
      <circle class="cls-2" cx="504.15" cy="489.02" r="366.48"/>
      <circle class="cls-7" cx="504.15" cy="484.05" r="352.55"/>
      <path class="cls-11" d="M426.56,616.58l-103.61,292.28,200.56-11.36,219.32,14.45-160.87-318.09s-37.27,8.93-44.66,9.95c-7.39,1.03-31.83,3.71-43.37,3.89s-9.94-5.06-23.28-6.71c-13.34-1.65-38.4-5.37-45.51-7.13-7.12-1.76,1.42,22.72,1.42,22.72Z"/>
      <polygon class="cls-3" points="464.99 625.42 417.81 903.49 523.51 897.5 514.6 625.42 464.99 625.42"/>
      <polygon class="cls-13" points="572.83 625.42 626.8 904.3 521.04 897.5 514.6 625.42 572.83 625.42"/>
      <path class="cls-9" d="M641.42,576.07c82.01,41.78-37.51,155.94-74.82,71.47,37.31,84.47-127.62,95.1-103.25,6.65-24.37,88.45-157.55-9.43-83.37-61.27-74.18,51.85-113.29-108.74-24.48-100.53-88.8-8.21-15.54-156.36,45.86-92.75-61.41-63.62,89.95-130.02,94.75-41.57-4.8-88.45,153.82-42.03,99.3,29.06,54.52-71.09,146.19,66.44,57.39,86.09,88.8-19.66,70.63,144.62-11.38,102.84Z"/>
      <path class="cls-8" d="M641.42,553.29c82.01,41.78-37.51,155.94-74.82,71.47,37.31,84.47-127.62,95.1-103.25,6.65-24.37,88.45-157.55-9.43-83.37-61.27-74.18,51.85-113.29-108.74-24.48-100.53-88.8-8.21-15.54-156.36,45.86-92.75-61.41-63.62,89.95-130.02,94.75-41.57-4.8-88.45,153.82-42.03,99.3,29.06,54.52-71.09,146.19,66.44,57.39,86.09,88.8-19.66,70.63,144.62-11.38,102.84Z"/>
      <circle class="cls-12" cx="504.15" cy="484.01" r="119.03"/>
      <path class="cls-3" d="M550.83,539.86l-43.26-27.36c-.18-.11-.41-.1-.58.04l-39.39,32.69c-.37.31-.91-.04-.79-.5l12.65-49.6c.05-.21-.03-.42-.21-.54l-43.26-27.36c-.4-.26-.25-.88.23-.91l51.08-3.29c.21-.01.39-.16.45-.37l12.65-49.6c.12-.46.76-.5.94-.06l18.92,47.57c.08.2.28.32.49.31l51.08-3.29c.48-.03.71.57.35.87l-39.39,32.69c-.16.14-.22.36-.14.56l18.92,47.57c.18.44-.32.86-.72.6Z"/>
      <path class="cls-6" d="M856.7,340.3c30.05,70.76,26.8,105.74,35.63,100.28,8.82-5.47,9.67-74.48-31.37-140.74-41.04-66.26-71.49-90.82-80.32-85.36s45.59,54.08,76.06,125.82Z"/>
      <path class="cls-4" d="M766,190.57c0,6.4-5.19,11.59-11.59,11.59s-5.44-4.64-11.59-11.59c-4.24-4.79-28.18-32.47-21.78-32.47s44.96,26.1,44.96,32.47Z"/>
      <path class="cls-6" d="M154.72,629.88c-24.47-52.68-22.9-79.17-29.43-74.82-6.53,4.35-5.43,56.48,27.23,105.48,32.66,49,56.27,66.78,62.8,62.43s-35.79-39.69-60.6-93.09Z"/>
      <path class="cls-3" d="M903.37,644.59c-63.04-1.44-82.8,17.43-84.24,80.47,1.44-63.04-17.43-82.8-80.47-84.24,63.04,1.44,82.8-17.43,84.24-80.47-1.44,63.04,17.43,82.8,80.47,84.24Z"/>
      <path class="cls-3" d="M926.27,559.01c-22.22-.51-29.19,6.14-29.69,28.36.51-22.22-6.14-29.19-28.36-29.69,22.22.51,29.19-6.14,29.69-28.36-.51,22.22,6.14,29.19,28.36,29.69Z"/>
      <circle class="cls-3" cx="804.75" cy="534.34" r="8.64"/>
      <circle class="cls-3" cx="203.37" cy="255.66" r="10.12"/>
      <circle class="cls-3" cx="165.84" cy="291.74" r="7.05"/>
      <path class="cls-10" d="M495.01,500.35c1.47.94,4.89,2.42,8.49,2.42,6.66,0,8.73-4.25,8.67-7.43-.06-5.37-4.89-7.66-9.91-7.66h-2.89v-3.89h2.89c3.77,0,8.55-1.95,8.55-6.49,0-3.07-1.95-5.78-6.72-5.78-3.07,0-6.01,1.36-7.66,2.54l-1.36-3.77c2-1.47,5.9-2.95,10.02-2.95,7.55,0,10.97,4.48,10.97,9.14,0,3.95-2.36,7.31-7.08,9.02v.12c4.72.94,8.55,4.48,8.55,9.85,0,6.13-4.78,11.5-13.97,11.5-4.3,0-8.08-1.36-9.96-2.59l1.42-4.01Z"/>
      <path class="cls-5" d="M887.82,709.45l-27.82,43.4c-6.99,11.22-18.94,25.47-27.95,35.14l-50.03,45.21L114.8,360.36l23.6-57.12c8.22-15.83,18.51-33.7,29.71-47.57l35.26-46.35,684.45,500.14Z"/>
      <polyline class="cls-5" points="910.22 664.23 248.9 169.01 277.52 147.36 922.23 624.48"/>
    </g>
  </g>
</svg>