<?xml version="1.0" encoding="UTF-8"?>
<svg xmlns="http://www.w3.org/2000/svg" version="1.1" xmlns:xlink="http://www.w3.org/1999/xlink" viewBox="0 0 1024 1024">
  <defs>
    <style>
      .cls-1 {
        fill: url(#Nepojmenovaný_přechod_9);
      }

      .cls-2 {
        fill: url(#Nepojmenovaný_přechod_4);
      }

      .cls-3, .cls-4, .cls-5, .cls-6 {
        fill: #fff;
      }

      .cls-7 {
        fill: #666c22;
      }

      .cls-8 {
        fill: #667827;
      }

      .cls-9 {
        fill: url(#Nepojmenovaný_přechod_12);
      }

      .cls-10 {
        fill: #7d992a;
      }

      .cls-11 {
        fill: #bdd143;
      }

      .cls-12 {
        fill: url(#Nepojmenovaný_přechod_10);
      }

      .cls-4 {
        opacity: .22;
      }

      .cls-5 {
        opacity: .13;
      }

      .cls-6 {
        opacity: .24;
      }

      .cls-13 {
        fill: #9cc432;
      }
    </style>
    <linearGradient id="Nepojmenovaný_přechod_4" data-name="Nepojmenovaný přechod 4" x1="526.08" y1="903.37" x2="526.08" y2="588.38" gradientUnits="userSpaceOnUse">
      <stop offset="0" stop-color="#9cc432"/>
      <stop offset="0" stop-color="#9bc331"/>
      <stop offset=".28" stop-color="#84a22d"/>
      <stop offset=".54" stop-color="#738b29"/>
      <stop offset=".79" stop-color="#697c27"/>
      <stop offset="1" stop-color="#667827"/>
    </linearGradient>
    <linearGradient id="Nepojmenovaný_přechod_12" data-name="Nepojmenovaný přechod 12" x1="507.97" y1="757.76" x2="679.18" y2="757.76" gradientUnits="userSpaceOnUse">
      <stop offset=".05" stop-color="#9cc432"/>
      <stop offset=".05" stop-color="#9fc639"/>
      <stop offset=".08" stop-color="#b3d162"/>
      <stop offset=".11" stop-color="#c5dc87"/>
      <stop offset=".14" stop-color="#d5e6a8"/>
      <stop offset=".17" stop-color="#e2edc3"/>
      <stop offset=".21" stop-color="#ecf4d9"/>
      <stop offset=".25" stop-color="#f5f9ea"/>
      <stop offset=".3" stop-color="#fafcf6"/>
      <stop offset=".38" stop-color="#fefefd"/>
      <stop offset=".59" stop-color="#fff"/>
    </linearGradient>
    <radialGradient id="Nepojmenovaný_přechod_10" data-name="Nepojmenovaný přechod 10" cx="408.79" cy="457.59" fx="408.79" fy="457.59" r="201.12" gradientTransform="translate(-52.83 210.54) rotate(-22.13)" gradientUnits="userSpaceOnUse">
      <stop offset="0" stop-color="#7a952a"/>
      <stop offset=".27" stop-color="#9fb265"/>
      <stop offset="1" stop-color="#fff"/>
    </radialGradient>
    <linearGradient id="Nepojmenovaný_přechod_9" data-name="Nepojmenovaný přechod 9" x1="497.62" y1="597.55" x2="497.62" y2="361.87" gradientUnits="userSpaceOnUse">
      <stop offset=".21" stop-color="#7d992a"/>
      <stop offset=".48" stop-color="#8cae2d"/>
      <stop offset=".77" stop-color="#97be30"/>
      <stop offset="1" stop-color="#9cc432"/>
    </linearGradient>
  </defs>
  <!-- Generator: Adobe Illustrator 28.7.4, SVG Export Plug-In . SVG Version: 1.2.0 Build 166)  -->
  <g>
    <g id="Vrstva_1">
      <path class="cls-8" d="M458.24,632.99l-102.58,289.36,198.56-11.25,217.12,14.31-159.26-314.91s-36.9,8.84-44.21,9.85c-7.31,1.02-31.51,3.67-42.93,3.85-11.42.18-9.84-5.01-23.05-6.64-13.2-1.63-38.01-5.32-45.06-7.06-7.05-1.74,1.4,22.5,1.4,22.5Z"/>
      <circle class="cls-8" cx="522.43" cy="506.11" r="405.85"/>
      <circle class="cls-11" cx="497.62" cy="484.67" r="405.85"/>
      <circle class="cls-10" cx="497.62" cy="484.67" r="362.82"/>
      <circle class="cls-13" cx="497.62" cy="479.75" r="349.03"/>
      <path class="cls-2" d="M420.81,610.96l-102.58,289.36,198.56-11.25,217.12,14.31-159.26-314.91s-36.9,8.84-44.21,9.85c-7.31,1.02-31.51,3.67-42.93,3.85-11.42.18-9.84-5.01-23.05-6.64-13.2-1.63-38.01-5.32-45.06-7.06-7.05-1.74,1.4,22.5,1.4,22.5Z"/>
      <polygon class="cls-3" points="458.85 619.71 412.14 895 516.79 889.07 507.97 619.71 458.85 619.71"/>
      <polygon class="cls-9" points="565.61 619.71 619.05 895.81 514.34 889.07 507.97 619.71 565.61 619.71"/>
      <path class="cls-8" d="M633.52,570.85c81.19,41.36-37.13,154.38-74.07,70.75,36.94,83.63-126.35,94.15-102.22,6.59-24.13,87.57-155.98-9.33-82.54-60.66-73.44,51.33-112.15-107.65-24.24-99.52-87.92-8.13-15.39-154.8,45.4-91.82-60.79-62.98,89.05-128.72,93.8-41.15-4.75-87.57,152.28-41.61,98.31,28.77,53.98-70.38,144.73,65.77,56.81,85.23,87.92-19.46,69.93,143.17-11.26,101.81Z"/>
      <path class="cls-12" d="M633.52,548.3c81.19,41.36-37.13,154.38-74.07,70.75,36.94,83.63-126.35,94.15-102.22,6.59-24.13,87.57-155.98-9.33-82.54-60.66-73.44,51.33-112.15-107.65-24.24-99.52-87.92-8.13-15.39-154.8,45.4-91.82-60.79-62.98,89.05-128.72,93.8-41.15-4.75-87.57,152.28-41.61,98.31,28.77,53.98-70.38,144.73,65.77,56.81,85.23,87.92-19.46,69.93,143.17-11.26,101.81Z"/>
      <circle class="cls-1" cx="497.62" cy="479.71" r="117.84"/>
      <path class="cls-3" d="M543.83,535l-42.81-27.08c-.18-.11-.41-.1-.58.04l-38.98,32.35c-.37.31-.91-.04-.79-.5l12.52-49.09c.05-.21-.03-.42-.21-.54l-42.81-27.08c-.4-.26-.25-.88.23-.91l50.55-3.26c.21-.01.39-.16.45-.37l12.52-49.09c.12-.46.76-.5.94-.06l18.72,47.07c.08.2.28.32.49.31l50.55-3.26c.48-.03.71.57.35.87l-38.98,32.35c-.16.14-.22.36-.14.56l18.72,47.07c.18.44-.32.86-.72.6Z"/>
      <path class="cls-5" d="M886.02,687.1l-29.09,46.68c-6.83,10.97-15.55,24.67-24.36,34.13l-45.21,46.05L119.05,337.71l25.1-52.6c8.04-15.47,17.76-31.18,28.72-44.74l39.52-45.52,673.63,492.24Z"/>
      <polyline class="cls-5" points="905.32 641 258.9 156.94 288.37 136.87 917.06 602.14"/>
      <path class="cls-6" d="M846.65,337.44c29.75,70.05,26.54,104.68,35.27,99.27,8.74-5.41,9.58-73.74-31.06-139.33-40.63-65.59-70.78-89.91-79.51-84.5s45.14,53.54,75.3,124.56Z"/>
      <path class="cls-4" d="M756.86,189.21c0,6.33-5.14,11.47-11.47,11.47s-5.39-4.59-11.47-11.47c-4.2-4.74-27.9-32.14-21.57-32.14s44.51,25.84,44.51,32.14Z"/>
      <path class="cls-6" d="M151.69,624.13c-24.23-52.15-22.67-78.38-29.13-74.07-6.46,4.31-5.37,55.92,26.96,104.42,32.33,48.51,55.71,66.11,62.17,61.81s-35.43-39.29-59.99-92.16Z"/>
      <path class="cls-3" d="M903.01,625.42c-62.41-1.43-81.97,17.26-83.4,79.67,1.43-62.41-17.26-81.97-79.67-83.4,62.41,1.43,81.97-17.26,83.4-79.67-1.43,62.41,17.26,81.97,79.67,83.4Z"/>
      <path class="cls-3" d="M925.69,540.69c-22-.5-28.89,6.08-29.4,28.08.5-22-6.08-28.89-28.08-29.4,22,.5,28.89-6.08,29.4-28.08-.5,22,6.08,28.89,28.08,29.4Z"/>
      <circle class="cls-3" cx="805.38" cy="516.27" r="8.56"/>
      <circle class="cls-3" cx="210.01" cy="240.38" r="10.02"/>
      <circle class="cls-3" cx="172.86" cy="276.1" r="6.98"/>
      <path class="cls-7" d="M488.92,499.47v-2.54l3.25-3.15c7.81-7.43,11.33-11.38,11.38-15.99,0-3.1-1.5-5.97-6.07-5.97-2.77,0-5.08,1.41-6.49,2.59l-1.32-2.92c2.12-1.79,5.13-3.1,8.65-3.1,6.58,0,9.36,4.51,9.36,8.89,0,5.64-4.09,10.21-10.53,16.41l-2.45,2.26v.09h13.73v3.43h-19.52Z"/>
    </g>
  </g>
</svg>